<svg width="555" height="138" viewBox="0 0 555 138" fill="none" xmlns="http://www.w3.org/2000/svg">
<path fill-rule="evenodd" clip-rule="evenodd" d="M56.3378 29.4062L0 52.418V128.028L28.1689 112.413L56.3378 128.028V29.4062ZM34.7649 97.5234L40.8636 66.0052C40.8948 65.8213 40.9499 65.5689 41.0144 65.2737C41.3285 63.8353 41.8643 61.382 40.9397 60.8914C40.0925 60.4419 37.8746 62.1741 36.6709 63.1143C36.4674 63.2733 36.2928 63.4096 36.1588 63.5089L9.50795 84.1219L27.4096 82.4286L34.7649 97.5234Z" fill="#0AADFF"/>
<path d="M526.954 102.731V113H523.103V103.403C523.103 103.016 523.052 102.65 522.95 102.303C522.848 101.936 522.675 101.621 522.43 101.356C522.186 101.07 521.85 100.857 521.422 100.714C520.994 100.551 520.444 100.469 519.771 100.469C519.262 100.469 518.763 100.52 518.274 100.622C517.805 100.724 517.388 100.857 517.021 101.02V113H513.139V98.8801C513.567 98.6764 514.077 98.4726 514.667 98.2689C515.258 98.0651 515.9 97.892 516.593 97.7493C517.286 97.5863 517.978 97.4641 518.671 97.3826C519.384 97.2807 520.057 97.2298 520.688 97.2298C522.115 97.2298 523.286 97.4233 524.203 97.8105C525.12 98.1772 525.802 98.7681 526.251 99.5831C526.719 100.378 526.954 101.427 526.954 102.731ZM522.797 99.797C523.449 99.2469 524.193 98.7885 525.028 98.4217C525.864 98.0346 526.74 97.7391 527.657 97.5354C528.573 97.3316 529.45 97.2298 530.285 97.2298C531.711 97.2298 532.883 97.4233 533.8 97.8105C534.716 98.1772 535.399 98.7681 535.847 99.5831C536.316 100.378 536.55 101.427 536.55 102.731V113H532.699V103.403C532.699 103.016 532.648 102.65 532.547 102.303C532.445 101.936 532.271 101.621 532.027 101.356C531.782 101.07 531.446 100.857 531.018 100.714C530.591 100.551 530.04 100.469 529.368 100.469C528.859 100.469 528.359 100.541 527.87 100.683C527.402 100.826 526.984 101.04 526.617 101.325L522.797 99.797ZM546.521 106.674L542.059 113H537.933L544.657 104.167L546.521 106.674ZM553.826 113H549.18L538.086 97.5965H542.701L553.826 113ZM545.268 104.045L549.791 97.5965H553.978L547.071 106.674L545.268 104.045Z" fill="#0AADFF"/>
<path d="M82.2464 58.5736C83.8957 57.7882 85.8591 57.0029 88.1367 56.2175C90.4143 55.4321 92.8882 54.7646 95.5585 54.2148C98.2288 53.5865 100.899 53.1153 103.569 52.8011C106.318 52.4084 108.91 52.2121 111.345 52.2121C116.842 52.2121 121.397 52.9582 125.01 54.4504C128.701 55.8641 131.45 58.1417 133.256 61.2832C135.141 64.3461 136.084 68.3908 136.084 73.4172V113H121.24V76.0089C121.24 74.5167 121.044 73.103 120.651 71.7679C120.259 70.3542 119.591 69.1369 118.648 68.1159C117.706 67.0164 116.41 66.1917 114.761 65.642C113.112 65.0137 110.991 64.6995 108.399 64.6995C106.436 64.6995 104.433 64.8959 102.391 65.2886C100.349 65.6812 98.6215 66.1917 97.2078 66.82V113H82.2464V58.5736ZM172.684 114.767C162.945 114.767 155.641 112.058 150.772 106.638C145.902 101.219 143.468 93.4049 143.468 83.1951C143.468 72.2784 145.942 64.3461 150.89 59.3983C155.916 54.4504 163.141 51.9765 172.566 51.9765C179.163 51.9765 184.661 53.1545 189.059 55.5107C193.457 57.7882 196.716 61.2439 198.837 65.8776C201.036 70.5113 202.135 76.2838 202.135 83.1951C202.135 93.4049 199.583 101.219 194.478 106.638C189.451 112.058 182.187 114.767 172.684 114.767ZM172.684 102.515C176.139 102.515 178.927 101.73 181.048 100.159C183.247 98.5884 184.857 96.3893 185.878 93.562C186.899 90.6561 187.409 87.2005 187.409 83.1951C187.409 78.7184 186.86 75.0665 185.76 72.2391C184.739 69.4118 183.129 67.3305 180.93 65.9954C178.81 64.6603 176.061 63.9927 172.684 63.9927C169.228 63.9927 166.44 64.6995 164.319 66.1132C162.199 67.5269 160.628 69.6474 159.607 72.4747C158.665 75.3021 158.194 78.8755 158.194 83.1951C158.194 89.4781 159.332 94.2688 161.61 97.5674C163.888 100.866 167.579 102.515 172.684 102.515ZM225.668 113L200.811 53.6258H216.832L236.035 101.219L232.383 101.455L249.936 53.6258H265.486L240.629 113H225.668ZM291.043 114.767C287.744 114.767 284.603 114.453 281.618 113.825C278.634 113.196 275.964 112.175 273.608 110.762C271.251 109.269 269.367 107.267 267.953 104.754C266.618 102.162 265.95 98.9418 265.95 95.0935C265.95 91.0881 266.775 87.711 268.424 84.9622C270.073 82.1348 272.469 80.0143 275.61 78.6006C278.83 77.1084 282.757 76.3623 287.391 76.3623C290.218 76.3623 292.849 76.6372 295.284 77.187C297.719 77.6582 299.918 78.3258 301.881 79.1897C303.844 80.0536 305.454 80.996 306.711 82.017L307.771 90.3812C306.122 89.2817 304.002 88.4178 301.41 87.7895C298.897 87.0827 296.148 86.7293 293.163 86.7293C289.001 86.7293 285.899 87.3968 283.857 88.732C281.815 90.0671 280.794 92.1483 280.794 94.9757C280.794 96.9391 281.344 98.5884 282.443 99.9235C283.543 101.18 284.956 102.162 286.684 102.869C288.412 103.497 290.218 103.811 292.103 103.811C296.423 103.811 299.525 103.536 301.41 102.986C303.373 102.358 304.355 101.062 304.355 99.0989V75.6555C304.355 71.8072 303.138 69.0191 300.703 67.2913C298.268 65.4849 294.852 64.5817 290.454 64.5817C287.077 64.5817 283.621 65.1708 280.087 66.3488C276.553 67.4483 273.686 68.9013 271.487 70.7076V57.1599C273.608 55.8248 276.788 54.6467 281.029 53.6258C285.27 52.6048 289.826 52.0943 294.695 52.0943C296.737 52.0943 298.897 52.2906 301.174 52.6833C303.452 53.076 305.612 53.7043 307.654 54.5682C309.774 55.4321 311.698 56.6495 313.426 58.2202C315.154 59.7124 316.528 61.6366 317.549 63.9927C318.57 66.2703 319.081 69.0584 319.081 72.3569V100.513C319.081 104.204 317.903 107.11 315.547 109.23C313.19 111.272 309.931 112.686 305.769 113.471C301.606 114.335 296.698 114.767 291.043 114.767ZM344.575 113H329.731V31.2426H344.575V113ZM355.486 113V54.2148H370.448L370.566 113H355.486ZM355.133 44.7903V32.5385H370.801V44.7903H355.133ZM381.455 58.5736C383.105 57.7882 385.068 57.0029 387.346 56.2175C389.623 55.4321 392.097 54.7646 394.767 54.2148C397.438 53.5865 400.108 53.1153 402.778 52.8011C405.527 52.4084 408.119 52.2121 410.553 52.2121C416.051 52.2121 420.606 52.9582 424.219 54.4504C427.91 55.8641 430.659 58.1417 432.465 61.2832C434.35 64.3461 435.293 68.3908 435.293 73.4172V113H420.449V76.0089C420.449 74.5167 420.253 73.103 419.86 71.7679C419.467 70.3542 418.8 69.1369 417.857 68.1159C416.915 67.0164 415.619 66.1917 413.97 65.642C412.32 65.0137 410.2 64.6995 407.608 64.6995C405.645 64.6995 403.642 64.8959 401.6 65.2886C399.558 65.6812 397.83 66.1917 396.417 66.82V113H381.455V58.5736ZM457.52 79.4253L480.492 53.6258H498.752L465.178 87.3183L457.52 79.4253ZM460.701 113H445.857V31.2426H460.819L460.701 113ZM468.241 73.6528L500.991 113H482.024L457.638 83.6663L468.241 73.6528Z" fill="white"/>
</svg>
