<svg width="25" height="24" viewBox="0 0 25 24" fill="none" xmlns="http://www.w3.org/2000/svg">
<path d="M15.054 8.79L10.764 13.09L9.11399 11.44C9.02435 11.3353 8.91403 11.2503 8.78996 11.1903C8.6659 11.1303 8.53077 11.0965 8.39305 11.0912C8.25533 11.0859 8.118 11.1091 7.98967 11.1594C7.86135 11.2096 7.7448 11.2859 7.64734 11.3833C7.54989 11.4808 7.47363 11.5974 7.42336 11.7257C7.37308 11.854 7.34988 11.9913 7.3552 12.1291C7.36052 12.2668 7.39425 12.4019 7.45427 12.526C7.51429 12.65 7.59931 12.7604 7.70399 12.85L10.054 15.21C10.1474 15.3027 10.2582 15.376 10.3801 15.4258C10.5019 15.4755 10.6324 15.5008 10.764 15.5C11.0263 15.4989 11.2777 15.3947 11.464 15.21L16.464 10.21C16.5577 10.117 16.6321 10.0064 16.6829 9.88458C16.7337 9.76272 16.7598 9.63201 16.7598 9.5C16.7598 9.36799 16.7337 9.23728 16.6829 9.11542C16.6321 8.99356 16.5577 8.88296 16.464 8.79C16.2766 8.60375 16.0232 8.49921 15.759 8.49921C15.4948 8.49921 15.2414 8.60375 15.054 8.79ZM12.334 2C10.3562 2 8.42278 2.58649 6.77829 3.6853C5.1338 4.78412 3.85208 6.3459 3.0952 8.17317C2.33832 10.0004 2.14029 12.0111 2.52614 13.9509C2.91199 15.8907 3.86439 17.6725 5.26292 19.0711C6.66144 20.4696 8.44328 21.422 10.3831 21.8079C12.3229 22.1937 14.3336 21.9957 16.1608 21.2388C17.9881 20.4819 19.5499 19.2002 20.6487 17.5557C21.7475 15.9112 22.334 13.9778 22.334 12C22.334 10.6868 22.0753 9.38642 21.5728 8.17317C21.0703 6.95991 20.3337 5.85752 19.4051 4.92893C18.4765 4.00035 17.3741 3.26375 16.1608 2.7612C14.9476 2.25866 13.6472 2 12.334 2ZM12.334 20C10.7518 20 9.20503 19.5308 7.88943 18.6518C6.57384 17.7727 5.54846 16.5233 4.94296 15.0615C4.33746 13.5997 4.17902 11.9911 4.4877 10.4393C4.79638 8.88743 5.55832 7.46197 6.67714 6.34315C7.79596 5.22433 9.22141 4.4624 10.7733 4.15372C12.3251 3.84504 13.9337 4.00346 15.3955 4.60896C16.8573 5.21447 18.1067 6.23984 18.9858 7.55544C19.8648 8.87103 20.334 10.4177 20.334 12C20.334 14.1217 19.4912 16.1566 17.9909 17.6569C16.4906 19.1571 14.4557 20 12.334 20Z" fill="white"/>
</svg>
