<svg width="25" height="24" viewBox="0 0 25 24" fill="none" xmlns="http://www.w3.org/2000/svg">
<path d="M15.386 8.79L11.096 13.09L9.44602 11.44C9.35638 11.3353 9.24606 11.2503 9.12199 11.1903C8.99793 11.1303 8.8628 11.0965 8.72508 11.0912C8.58736 11.0859 8.45003 11.1091 8.3217 11.1594C8.19338 11.2096 8.07683 11.2859 7.97937 11.3833C7.88192 11.4808 7.80566 11.5974 7.75539 11.7257C7.70511 11.854 7.68191 11.9913 7.68723 12.1291C7.69255 12.2668 7.72628 12.4019 7.7863 12.526C7.84632 12.65 7.93134 12.7604 8.03602 12.85L10.386 15.21C10.4795 15.3027 10.5903 15.376 10.7121 15.4258C10.8339 15.4755 10.9644 15.5008 11.096 15.5C11.3583 15.4989 11.6097 15.3947 11.796 15.21L16.796 10.21C16.8897 10.117 16.9641 10.0064 17.0149 9.88458C17.0657 9.76272 17.0918 9.63201 17.0918 9.5C17.0918 9.36799 17.0657 9.23728 17.0149 9.11542C16.9641 8.99356 16.8897 8.88296 16.796 8.79C16.6086 8.60375 16.3552 8.49921 16.091 8.49921C15.8268 8.49921 15.5734 8.60375 15.386 8.79ZM12.666 2C10.6882 2 8.75481 2.58649 7.11032 3.6853C5.46583 4.78412 4.18411 6.3459 3.42723 8.17317C2.67035 10.0004 2.47232 12.0111 2.85817 13.9509C3.24402 15.8907 4.19643 17.6725 5.59496 19.0711C6.99348 20.4696 8.77531 21.422 10.7151 21.8079C12.6549 22.1937 14.6656 21.9957 16.4928 21.2388C18.3201 20.4819 19.8819 19.2002 20.9807 17.5557C22.0795 15.9112 22.666 13.9778 22.666 12C22.666 10.6868 22.4073 9.38642 21.9048 8.17317C21.4023 6.95991 20.6657 5.85752 19.7371 4.92893C18.8085 4.00035 17.7061 3.26375 16.4928 2.7612C15.2796 2.25866 13.9792 2 12.666 2ZM12.666 20C11.0838 20 9.53706 19.5308 8.22146 18.6518C6.90587 17.7727 5.88049 16.5233 5.27499 15.0615C4.66949 13.5997 4.51106 11.9911 4.81974 10.4393C5.12842 8.88743 5.89035 7.46197 7.00917 6.34315C8.12799 5.22433 9.55345 4.4624 11.1053 4.15372C12.6571 3.84504 14.2657 4.00346 15.7275 4.60896C17.1893 5.21447 18.4387 6.23984 19.3178 7.55544C20.1968 8.87103 20.666 10.4177 20.666 12C20.666 14.1217 19.8232 16.1566 18.3229 17.6569C16.8226 19.1571 14.7877 20 12.666 20Z" fill="white"/>
</svg>
