<svg width="565" height="123" viewBox="0 0 565 123" fill="none" xmlns="http://www.w3.org/2000/svg">
<g clip-path="url(#clip0_1356_7451)">
<path fill-rule="evenodd" clip-rule="evenodd" d="M64.6819 0L0 28.7475V123.204L32.341 103.696L64.6819 123.204V0ZM39.9095 85.0945L46.9115 45.7203C46.9474 45.4905 47.0107 45.1752 47.0846 44.8065C47.4453 43.0095 48.0604 39.9447 46.9989 39.3319C46.0262 38.7703 43.4799 40.9343 42.0979 42.1088C41.8642 42.3074 41.6638 42.4777 41.5099 42.6018L10.9118 68.3527L31.4649 66.2374L39.9095 85.0945Z" fill="#00D1FF"/>
<path d="M73.2605 8.89856V4.78235H74.8017C75.8167 4.78235 76.4369 5.19585 76.4369 6.06044V6.07924C76.4369 6.68069 76.0986 7.01901 75.6475 7.18817L76.6813 8.89856H75.5724L74.6702 7.37613H74.3131V8.89856H73.2605ZM74.3131 6.6619H74.7641C75.1776 6.6619 75.4032 6.49274 75.4032 6.13562V6.11683C75.4032 5.72212 75.1588 5.59056 74.7641 5.59056H74.3131V6.6619ZM74.7641 10.3458C76.7001 10.3458 78.2037 8.93615 78.2037 6.88744C78.2037 4.83873 76.7565 3.42907 74.7641 3.42907C72.753 3.42907 71.3058 4.85753 71.3058 6.90624C71.3058 8.97375 72.8282 10.3458 74.7641 10.3458ZM74.7641 11.06C72.4147 11.06 70.5352 9.25568 70.5352 6.90624C70.5352 4.59439 72.3959 2.71484 74.7641 2.71484C77.1512 2.71484 78.9743 4.5756 78.9743 6.88744C78.9743 9.23688 77.1136 11.06 74.7641 11.06Z" fill="#00D1FF"/>
<path d="M138.164 36.1932H153.708V90.8711H138.164V86.3406C138.164 82.9819 137.461 79.7012 136.133 76.6548C134.727 73.4523 132.852 70.4059 130.587 67.672C128.166 64.86 125.51 62.2824 122.62 60.0952C119.651 57.9081 116.683 56.1116 113.715 54.7056C112.778 54.315 111.918 53.9244 110.981 53.612V90.8711H95.515V36.1932H103.248C106.841 36.1932 110.669 36.8962 114.73 38.3022C118.636 39.6301 122.62 41.5047 126.525 43.8481C130.431 46.1914 134.102 49.0815 137.617 52.3622C137.773 52.5184 137.929 52.6747 138.164 52.909V36.1932ZM221.582 53.2214C222.753 56.5021 223.3 59.939 223.3 63.5321C223.3 67.2034 222.753 70.7184 221.582 73.999C220.41 77.2797 218.77 80.1698 216.583 82.6694C214.396 85.2471 211.74 87.278 208.615 88.684C205.569 90.1681 202.132 90.8711 198.383 90.8711H183.62C179.87 90.8711 176.433 90.1681 173.309 88.684C170.263 87.278 167.607 85.2471 165.42 82.6694C163.233 80.1698 161.514 77.2797 160.421 73.999C159.249 70.7184 158.702 67.2815 158.702 63.5321C158.702 59.939 159.249 56.5021 160.421 53.2214C161.514 49.9408 163.233 47.0506 165.342 44.473C167.607 41.8953 170.263 39.8644 173.309 38.4584C176.433 36.9743 179.87 36.1932 183.62 36.1932H198.383C202.132 36.1932 205.569 36.9743 208.615 38.4584C211.74 39.8644 214.396 41.8953 216.583 44.473C218.77 47.0506 220.488 49.9408 221.582 53.2214ZM206.506 69.781C207.366 67.9845 207.756 65.8755 207.756 63.5321C207.756 61.1888 207.366 59.1579 206.506 57.2832C205.725 55.5648 204.71 54.2369 203.304 53.2995C201.976 52.3622 200.336 51.8935 198.383 51.8935H183.62C181.667 51.8935 180.105 52.3622 178.777 53.2995C177.371 54.2369 176.277 55.5648 175.496 57.2832C174.637 59.1579 174.168 61.2669 174.168 63.5321C174.168 65.8755 174.637 67.9064 175.496 69.781C176.277 71.4995 177.371 72.8274 178.777 73.8428C180.105 74.7802 181.667 75.2488 183.62 75.2488H198.383C200.336 75.2488 201.976 74.7802 203.226 73.8428C204.71 72.8274 205.725 71.4995 206.506 69.781ZM271.222 36.1932H288.797L260.833 90.8711H247.944L219.98 36.1932H237.477L254.349 69.1561L271.222 36.1932ZM311.988 36.1932H345.654V90.8711H330.11V77.9046H300.818V90.8711H285.352V63.5321C285.352 59.8609 285.977 56.2678 287.383 52.9871C288.711 49.7064 290.663 46.8163 293.085 44.3168C295.506 41.7391 298.396 39.7863 301.599 38.3803C304.88 36.9743 308.316 36.1932 311.988 36.1932ZM330.11 62.2042V51.8935H311.988C309.957 51.8935 308.16 52.4403 306.442 53.4558C304.723 54.4712 303.395 55.8772 302.38 57.6738C301.521 59.0798 301.052 60.5639 300.896 62.2042H330.11Z" fill="#F7F7F7"/>
<path d="M368.199 75.2488H404.287V90.8711H352.733V36.1932H368.199V75.2488ZM423.731 90.8711H408.265V36.1932H423.731V90.8711ZM473.493 36.1932H489.037V90.8711H473.493V86.3406C473.493 82.9819 472.79 79.7012 471.462 76.6548C470.056 73.4523 468.182 70.4059 465.916 67.672C463.495 64.86 460.839 62.2824 457.949 60.0952C454.981 57.9081 452.013 56.1116 449.044 54.7056C448.107 54.315 447.248 53.9244 446.31 53.612V90.8711H430.844V36.1932H438.577C442.171 36.1932 445.998 36.8962 450.06 38.3022C453.965 39.6301 457.949 41.5047 461.855 43.8481C465.76 46.1914 469.431 49.0815 472.946 52.3622C473.103 52.5184 473.259 52.6747 473.493 52.909V36.1932ZM565.035 36.1932L532.853 59.939L563.16 90.8711H541.758L520.589 68.9999L511.607 75.6394V90.8711H496.141V36.1932H511.607V57.127L540.274 36.1932H565.035Z" fill="#00D1FF"/>
</g>
<defs>
<clipPath id="clip0_1356_7451">
<rect width="565" height="123" fill="white"/>
</clipPath>
</defs>
</svg>
