<?xml version="1.0" encoding="utf-8"?>
<!-- Generator: Adobe Illustrator 27.0.0, SVG Export Plug-In . SVG Version: 6.00 Build 0)  -->
<svg version="1.1" id="Capa_1" xmlns="http://www.w3.org/2000/svg" xmlns:xlink="http://www.w3.org/1999/xlink" x="0px" y="0px"
	 viewBox="0 0 137.6 138.1" style="enable-background:new 0 0 137.6 138.1;" xml:space="preserve">
<style type="text/css">
	.st0{fill:#E7E7E7;}
</style>
<g id="paSq1w.tif">
	<g>
		<path class="st0" d="M0,138.1c2.3-8.5,4.6-16.7,6.8-24.9c0.9-3.1,1.8-6.3,2.5-9.4c0.2-0.6,0.1-1.5-0.2-2C2.7,90-0.3,77.3,0.7,64
			c1.7-22.3,12-39.9,30.5-52.5C43.7,3,57.6-0.9,72.7,0.2c25.5,1.8,45,14,56.7,36.7c12.8,24.9,10.6,49.5-5.7,72.3
			c-11,15.4-26.4,24.3-45.2,27.1c-14.5,2.1-28.2-0.4-41.2-7c-0.6-0.3-1.6-0.4-2.3-0.3c-11.2,2.9-22.3,5.8-33.4,8.7
			C1.2,137.8,0.7,137.9,0,138.1z M16.4,121.8c0.4-0.1,0.6-0.1,0.8-0.2c6.3-1.7,12.6-3.3,18.9-5c1.3-0.4,2.3-0.2,3.5,0.5
			c12.6,7.5,26.2,10,40.6,7.1c30.4-6.2,49.9-35,44.7-65.6c-4.4-26-26.8-45.9-53-47C57.3,11,44.2,15.2,33,24.4
			C20.2,35,13.2,48.7,12.2,65.3c-0.8,12.2,2.3,23.6,8.9,33.9c0.7,1.1,0.9,2.1,0.6,3.4C19.9,109,18.2,115.3,16.4,121.8z"/>
		<path class="st0" d="M46.7,37c3-0.8,4.4,1.1,5.5,3.8c1.5,4,3.2,7.9,4.9,11.8c0.6,1.3,0.5,2.5-0.3,3.7c-1.4,1.8-2.7,3.7-4.2,5.5
			c-0.9,1.1-1,2.1-0.3,3.4c5.6,9.4,13.4,16.3,23.6,20.3c1.3,0.5,2.4,0.3,3.3-0.8c1.7-2.1,3.4-4.2,5.1-6.4c1.2-1.5,1.9-1.9,3.6-1.1
			c4.9,2.2,9.7,4.5,14.5,7c0.6,0.3,1.1,1.4,1.1,2.1c-0.1,7.2-2.3,10.8-10,14c-4.4,1.8-9,1.4-13.5,0.1c-16.4-4.6-28.5-14.9-38.2-28.5
			c-3-4.3-5.8-8.7-7-13.9c-1.6-7.4,0.2-13.8,5.6-19.2C42.1,37,44.2,36.7,46.7,37z"/>
	</g>
</g>
</svg>
